<svg xmlns="http://www.w3.org/2000/svg" width="16" height="16" viewBox="0 0 32 32" shape-rendering="geometricPrecision"><title>clioPaint: original classic adaptation</title><defs></defs><path d="M4 16C3 9 10 5 18 7 24 8 27 13 23 16 20 18 16 15 16 20 18 24 15 27 10 25 6 24 4 20 4 16Z" fill="#000000" stroke="#000000" stroke-width="1.7" stroke-linejoin="round" stroke-linecap="round"/><ellipse cx="12" cy="20" rx="2.5" ry="2.3" fill="#000000"/><circle cx="7" cy="14" r="2" fill="#000000"/><circle cx="12" cy="10" r="2" fill="#000000"/><circle cx="19" cy="11" r="2" fill="#000000"/><g transform="translate(27 3) rotate(18) scale(0.95)"><path d="M-1.7 2Q0 0 1.7 2L1.3 15H-1.3Z" fill="#000000" stroke="#000000" stroke-width="1" stroke-linejoin="round" stroke-linecap="round"/><rect x="-2" y="13" width="4" height="4.5" rx="0" fill="#000000" stroke="#000000" stroke-width="0.7"/><path d="M-2 17H2L2.4 20 0 24-2.4 20Z" fill="#000000" stroke="none" stroke-width="1" stroke-linejoin="round" stroke-linecap="round"/></g></svg>