<svg xmlns="http://www.w3.org/2000/svg" width="32" height="32" viewBox="0 0 256 256" shape-rendering="geometricPrecision">
  <path fill="#000000" d="M50 42h157v1h-157zM47 43h163v1h-163zM45 44h167v1h-167zM43 45h171v1h-171zM42 46h173v1h-173zM41 47h175v1h-175zM40 48h177v1h-177zM39 49h179v1h-179zM38 50h181v1h-181zM37 51h183v1h-183zM37 52h183v1h-183zM36 53h185v1h-185zM36 54h185v1h-185zM35 55h187v1h-187zM35 56h187v1h-187zM35 57h187v1h-187zM34 58h189v1h-189zM34 59h189v1h-189zM34 60h189v1h-189zM34 61h189v1h-189zM34 62h189v1h-189zM34 63h189v1h-189zM34 64h189v1h-189zM34 65h189v1h-189zM34 66h189v1h-189zM34 67h189v1h-189zM34 68h189v1h-189zM34 69h189v1h-189zM34 70h189v1h-189zM34 71h189v1h-189zM34 72h189v1h-189zM34 73h189v1h-189zM34 74h189v1h-189zM34 75h189v1h-189zM34 76h189v1h-189zM34 77h189v1h-189zM34 78h189v1h-189zM34 79h189v1h-189zM34 80h189v1h-189zM34 81h189v1h-189zM34 82h189v1h-189zM34 83h189v1h-189zM34 84h189v1h-189zM34 85h189v1h-189zM34 86h189v1h-189zM34 87h189v1h-189zM34 88h189v1h-189zM34 89h189v1h-189zM34 90h189v1h-189zM34 91h189v1h-189zM34 92h189v1h-189zM34 93h189v1h-189zM34 94h189v1h-189zM34 95h189v1h-189zM34 96h189v1h-189zM34 97h189v1h-189zM34 98h189v1h-189zM34 99h189v1h-189zM34 100h189v1h-189zM34 101h189v1h-189zM34 102h189v1h-189zM34 103h189v1h-189zM34 104h189v1h-189zM34 105h189v1h-189zM34 106h189v1h-189zM34 107h189v1h-189zM34 108h189v1h-189zM34 109h189v1h-189zM34 110h189v1h-189zM34 111h189v1h-189zM34 112h189v1h-189zM34 113h189v1h-189zM34 114h189v1h-189zM34 115h189v1h-189zM34 116h189v1h-189zM34 117h189v1h-189zM34 118h189v1h-189zM34 119h189v1h-189zM34 120h189v1h-189zM34 121h189v1h-189zM34 122h189v1h-189zM34 123h189v1h-189zM34 124h189v1h-189zM34 125h189v1h-189zM34 126h189v1h-189zM34 127h189v1h-189zM34 128h189v1h-189zM34 129h189v1h-189zM34 130h189v1h-189zM34 131h189v1h-189zM34 132h189v1h-189zM34 133h189v1h-189zM34 134h189v1h-189zM34 135h189v1h-189zM34 136h189v1h-189zM34 137h189v1h-189zM34 138h189v1h-189zM34 139h189v1h-189zM34 140h189v1h-189zM34 141h189v1h-189zM34 142h189v1h-189zM34 143h189v1h-189zM34 144h189v1h-189zM34 145h189v1h-189zM34 146h189v1h-189zM34 147h189v1h-189zM34 148h189v1h-189zM34 149h189v1h-189zM34 150h189v1h-189zM34 151h189v1h-189zM34 152h189v1h-189zM34 153h189v1h-189zM34 154h189v1h-189zM34 155h189v1h-189zM34 156h189v1h-189zM34 157h189v1h-189zM34 158h189v1h-189zM34 159h189v1h-189zM34 160h189v1h-189zM34 161h189v1h-189zM34 162h189v1h-189zM34 163h189v1h-189zM34 164h189v1h-189zM34 165h189v1h-189zM34 166h189v1h-189zM34 167h189v1h-189zM34 168h189v1h-189zM34 169h189v1h-189zM34 170h189v1h-189zM34 171h189v1h-189zM34 172h189v1h-189zM34 173h189v1h-189zM34 174h189v1h-189zM34 175h189v1h-189zM34 176h189v1h-189zM34 177h189v1h-189zM34 178h189v1h-189zM34 179h189v1h-189zM34 180h189v1h-189zM34 181h189v1h-189zM34 182h189v1h-189zM34 183h189v1h-189zM34 184h189v1h-189zM34 185h189v1h-189zM34 186h189v1h-189zM34 187h189v1h-189zM34 188h189v1h-189zM34 189h189v1h-189zM34 190h189v1h-189zM34 191h189v1h-189zM34 192h189v1h-189zM34 193h189v1h-189zM34 194h189v1h-189zM34 195h189v1h-189zM34 196h189v1h-189zM34 197h189v1h-189zM34 198h189v1h-189zM35 199h187v1h-187zM35 200h187v1h-187zM35 201h187v1h-187zM36 202h185v1h-185zM36 203h185v1h-185zM37 204h183v1h-183zM37 205h183v1h-183zM38 206h181v1h-181zM39 207h179v1h-179zM40 208h177v1h-177zM41 209h175v1h-175zM42 210h173v1h-173zM43 211h171v1h-171zM45 212h167v1h-167zM47 213h163v1h-163zM50 214h157v1h-157z"/>
</svg>
