<svg xmlns="http://www.w3.org/2000/svg" width="16" height="16" viewBox="0 0 128 128" shape-rendering="geometricPrecision">
  <path fill="#000000" d="M50 7h2v1h-2zM63 7h2v1h-2zM76 7h2v1h-2zM48 8h6v1h-6zM61 8h6v1h-6zM74 8h6v1h-6zM46 9h10v1h-10zM59 9h10v1h-10zM72 9h10v1h-10zM45 10h12v1h-12zM58 10h12v1h-12zM71 10h12v1h-12zM44 11h40v1h-40zM44 12h40v1h-40zM43 13h42v1h-42zM43 14h42v1h-42zM43 15h42v1h-42zM43 16h42v1h-42zM43 17h42v1h-42zM43 18h42v1h-42zM43 19h42v1h-42zM43 20h42v1h-42zM43 21h42v1h-42zM43 22h42v1h-42zM43 23h42v1h-42zM43 24h42v1h-42zM43 25h42v1h-42zM43 26h42v1h-42zM43 27h42v1h-42zM43 28h42v1h-42zM37 29h54v1h-54zM35 30h58v1h-58zM33 31h62v1h-62zM32 32h64v1h-64zM31 33h66v1h-66zM31 34h66v1h-66zM30 35h68v1h-68zM30 36h68v1h-68zM29 37h70v1h-70zM29 38h70v1h-70zM29 39h70v1h-70zM29 40h70v1h-70zM29 41h70v1h-70zM29 42h70v1h-70zM13 43h102v1h-102zM11 44h106v1h-106zM10 45h108v1h-108zM9 46h110v1h-110zM9 47h110v1h-110zM8 48h112v1h-112zM8 49h112v1h-112zM7 50h114v1h-114zM7 51h114v1h-114zM8 52h112v1h-112zM8 53h112v1h-112zM9 54h110v1h-110zM9 55h110v1h-110zM10 56h108v1h-108zM11 57h106v1h-106zM10 58h108v1h-108zM9 59h110v1h-110zM9 60h110v1h-110zM8 61h112v1h-112zM8 62h112v1h-112zM7 63h114v1h-114zM7 64h114v1h-114zM8 65h112v1h-112zM8 66h112v1h-112zM9 67h110v1h-110zM9 68h110v1h-110zM10 69h108v1h-108zM11 70h106v1h-106zM10 71h108v1h-108zM9 72h110v1h-110zM9 73h110v1h-110zM8 74h112v1h-112zM8 75h112v1h-112zM7 76h114v1h-114zM7 77h114v1h-114zM8 78h112v1h-112zM8 79h112v1h-112zM9 80h110v1h-110zM9 81h110v1h-110zM10 82h108v1h-108zM11 83h106v1h-106zM13 84h102v1h-102zM29 85h70v1h-70zM29 86h70v1h-70zM29 87h70v1h-70zM29 88h70v1h-70zM29 89h70v1h-70zM29 90h70v1h-70zM30 91h68v1h-68zM30 92h68v1h-68zM31 93h66v1h-66zM31 94h66v1h-66zM32 95h64v1h-64zM33 96h62v1h-62zM35 97h58v1h-58zM37 98h54v1h-54zM43 99h42v1h-42zM43 100h42v1h-42zM43 101h42v1h-42zM43 102h42v1h-42zM43 103h42v1h-42zM43 104h42v1h-42zM43 105h42v1h-42zM43 106h42v1h-42zM43 107h42v1h-42zM43 108h42v1h-42zM43 109h42v1h-42zM43 110h42v1h-42zM43 111h42v1h-42zM43 112h42v1h-42zM43 113h42v1h-42zM43 114h42v1h-42zM44 115h40v1h-40zM44 116h40v1h-40zM45 117h12v1h-12zM58 117h12v1h-12zM71 117h12v1h-12zM46 118h10v1h-10zM59 118h10v1h-10zM72 118h10v1h-10zM48 119h6v1h-6zM61 119h6v1h-6zM74 119h6v1h-6zM50 120h2v1h-2zM63 120h2v1h-2zM76 120h2v1h-2z"/>
</svg>
