<svg xmlns="http://www.w3.org/2000/svg" width="32" height="32" viewBox="0 0 32 32" shape-rendering="geometricPrecision">
  <!-- Snow Leopard 10.6 painter (shared recipe): matte silver body, soft top
       highlight, gentle shade, quiet rim. Same anatomy, quieter generation. -->
  <defs>
    <linearGradient id="g-body" x1="0" y1="0" x2="0" y2="1">
      <stop offset="0" stop-color="#d3e2f5"/>
      <stop offset="0.5" stop-color="#b1c5e5"/>
      <stop offset="1" stop-color="#8da2c8"/>
    </linearGradient>
    <linearGradient id="g-soft" x1="0" y1="0" x2="0" y2="1">
      <stop offset="0" stop-color="#e2ebf8"/>
      <stop offset="1" stop-color="#b0bfd8"/>
    </linearGradient>
    <linearGradient id="g-hi" x1="0" y1="0" x2="0" y2="1">
      <stop offset="0" stop-color="#ffffff" stop-opacity="0.38"/>
      <stop offset="0.45" stop-color="#ffffff" stop-opacity="0"/>
    </linearGradient>
    <linearGradient id="g-sh" x1="0" y1="0" x2="0" y2="1">
      <stop offset="0.6" stop-color="#000000" stop-opacity="0"/>
      <stop offset="1" stop-color="#000000" stop-opacity="0.16"/>
    </linearGradient>
    <clipPath id="cp-body">
      <path d="M5 7h22v18H5z" />
      <rect x="7" y="10" width="5" height="5"/>
      <rect x="17" y="15" width="5" height="5"/>
    </clipPath>
  </defs>
  <path d="M5 7h22v18H5z" fill="url(#g-body)" stroke="#4d4d4d" stroke-width="1" />
    <rect x="7" y="10" width="5" height="5" fill="url(#g-body)" stroke="#4d4d4d" stroke-width="1" />
    <rect x="17" y="15" width="5" height="5" fill="url(#g-body)" stroke="#4d4d4d" stroke-width="1" />
  <g clip-path="url(#cp-body)">
    <rect x="0" y="0" width="32" height="32" fill="url(#g-hi)"/>
    <rect x="0" y="0" width="32" height="32" fill="url(#g-sh)"/>
    <rect x="1" y="0" width="30" height="1" fill="#ffffff" fill-opacity="0.55"/>
  </g>
  
  <path d="M9 12h14M9 17h14M9 22h14" fill="none" stroke="#4a4a4a" stroke-width="1" stroke-linecap="square" />
  <path d="M13 9v16M19 9v16" fill="none" stroke="#4a4a4a" stroke-width="1" stroke-linecap="square" />
</svg>
