<svg xmlns="http://www.w3.org/2000/svg" width="15" height="15" shape-rendering="crispEdges"><path fill="#cccccc" d="M0 0h15v15H0z"/><path fill="#ffffff" d="M0 0h15v1h-15zM0 1h1v1h-1zM0 2h1v1h-1zM0 3h1v1h-1zM8 3h2v1h-2zM0 4h1v1h-1zM7 4h1v1h-1zM0 5h1v1h-1zM6 5h1v1h-1zM10 5h2v1h-2zM0 6h1v1h-1zM5 6h1v1h-1zM9 6h1v1h-1zM0 7h1v1h-1zM4 7h1v1h-1zM8 7h1v1h-1zM12 7h2v1h-2zM0 8h1v1h-1zM3 8h1v1h-1zM7 8h1v1h-1zM11 8h1v1h-1zM0 9h1v1h-1zM6 9h1v1h-1zM10 9h1v1h-1zM0 10h1v1h-1zM5 10h1v1h-1zM9 10h1v1h-1zM0 11h1v1h-1zM8 11h1v1h-1zM0 12h1v1h-1zM7 12h1v1h-1zM0 13h1v1h-1zM0 14h1v1h-1z"/><path fill="#777777" d="M9 4h1v1h-1zM8 5h1v1h-1zM7 6h1v1h-1zM11 6h1v1h-1zM6 7h1v1h-1zM10 7h1v1h-1zM5 8h1v1h-1zM9 8h1v1h-1zM13 8h1v1h-1zM4 9h1v1h-1zM8 9h1v1h-1zM12 9h1v1h-1zM7 10h1v1h-1zM11 10h1v1h-1zM6 11h1v1h-1zM10 11h1v1h-1zM9 12h1v1h-1zM8 13h1v1h-1z"/><path fill="#aaaaaa" d="M3 9h1v1h-1zM5 11h1v1h-1zM7 13h1v1h-1z"/></svg>